<svg width="32" height="40" viewBox="0 0 32 40" fill="none" xmlns="http://www.w3.org/2000/svg">
<mask id="mask0_1134_11468" style="mask-type:alpha" maskUnits="userSpaceOnUse" x="-8" y="-4" width="48" height="49">
<rect x="-8" y="-3.95" width="48" height="48" fill="#D9D9D9"/>
</mask>
<g mask="url(#mask0_1134_11468)">
<path d="M10.7 26.4L16 22.5L21.15 26.4L19 20.1L24.3 16.3H17.9L16 10.05L14.1 16.3H7.7L12.9 20.1L10.7 26.4ZM16 40C11.3333 38.8333 7.5 36.125 4.5 31.875C1.5 27.625 0 22.9667 0 17.9V6L16 0L32 6V17.9C32 22.9667 30.5 27.625 27.5 31.875C24.5 36.125 20.6667 38.8333 16 40ZM16 36.9C19.8333 35.6333 22.9583 33.2417 25.375 29.725C27.7917 26.2083 29 22.2667 29 17.9V8.1L16 3.2L3 8.1V17.9C3 22.2667 4.20833 26.2083 6.625 29.725C9.04166 33.2417 12.1667 35.6333 16 36.9Z" fill="#0558AC"/>
</g>
</svg>
