<svg width="40" height="40" viewBox="0 0 40 40" fill="none" xmlns="http://www.w3.org/2000/svg">
<mask id="mask0_1134_11483" style="mask-type:alpha" maskUnits="userSpaceOnUse" x="-6" y="-4" width="48" height="48">
<rect x="-6" y="-4" width="48" height="48" fill="#D9D9D9"/>
</mask>
<g mask="url(#mask0_1134_11483)">
<path d="M12 12V9H30V12H12ZM12 18V15H30V18H12ZM19 40H5.25C3.79167 40 2.55217 39.4895 1.5315 38.4685C0.5105 37.4478 0 36.2083 0 34.75V28H6V0H36V19.05C35.5 18.9833 34.9938 18.9828 34.4815 19.0485C33.9688 19.1142 33.475 19.2313 33 19.4V3H9V28H23.6L20.6 31H3V34.75C3 35.3873 3.21667 35.9217 3.65 36.353C4.08333 36.7843 4.6 37 5.2 37H19V40ZM22 40V33.85L33.05 22.85C33.35 22.55 33.6833 22.3333 34.05 22.2C34.4167 22.0667 34.7833 22 35.15 22C35.55 22 35.9333 22.075 36.3 22.225C36.6667 22.375 37 22.6 37.3 22.9L39.15 24.75C39.45 25.05 39.6667 25.3833 39.8 25.75C39.9333 26.1167 40 26.4833 40 26.85C40 27.2167 39.925 27.5917 39.775 27.975C39.625 28.3583 39.4015 28.7 39.1045 29L28.15 40H22ZM25 37H26.9L32.95 30.9L32.05 29.95L31.1 29.05L25 35.1V37ZM32.05 29.95L31.1 29.05L32.95 30.9L32.05 29.95Z" fill="#0558AC"/>
</g>
</svg>
